<mxfile host="app.diagrams.net" modified="2022-07-19T07:02:28.853Z" agent="5.0 (Windows NT 10.0; Win64; x64) AppleWebKit/537.36 (KHTML, like Gecko) Chrome/103.0.0.0 Safari/537.36" etag="bpGUYxQGDKEoz7I5Rqpv" version="20.1.1" type="github">
  <diagram id="mvwNSax9waXdGKYffTKl" name="Page-1">
    <mxGraphModel dx="1038" dy="642" grid="1" gridSize="10" guides="1" tooltips="1" connect="1" arrows="1" fold="1" page="1" pageScale="1" pageWidth="827" pageHeight="1169" math="0" shadow="0">
      <root>
        <mxCell id="0" />
        <mxCell id="1" parent="0" />
        <mxCell id="wkVQ0FYDgM6hOJOvWLBH-1" value="ServiceManager" style="rounded=1;whiteSpace=wrap;html=1;comic=1;sketch=0;fontFamily=Comic Sans MS;fillColor=#dae8fc;strokeColor=#6c8ebf;" vertex="1" parent="1">
          <mxGeometry x="310" y="60" width="120" height="60" as="geometry" />
        </mxCell>
        <mxCell id="wkVQ0FYDgM6hOJOvWLBH-4" style="edgeStyle=orthogonalEdgeStyle;orthogonalLoop=1;jettySize=auto;html=1;exitX=0.5;exitY=0;exitDx=0;exitDy=0;entryX=0;entryY=0.5;entryDx=0;entryDy=0;fontFamily=Comic Sans MS;curved=1;sketch=1;comic=1;" edge="1" parent="1" source="wkVQ0FYDgM6hOJOvWLBH-2" target="wkVQ0FYDgM6hOJOvWLBH-1">
          <mxGeometry relative="1" as="geometry" />
        </mxCell>
        <mxCell id="wkVQ0FYDgM6hOJOvWLBH-8" value="2、查询服务" style="edgeLabel;html=1;align=center;verticalAlign=middle;resizable=0;points=[];fontFamily=Comic Sans MS;" vertex="1" connectable="0" parent="wkVQ0FYDgM6hOJOvWLBH-4">
          <mxGeometry x="-0.3478" y="-14" relative="1" as="geometry">
            <mxPoint as="offset" />
          </mxGeometry>
        </mxCell>
        <mxCell id="wkVQ0FYDgM6hOJOvWLBH-6" style="edgeStyle=orthogonalEdgeStyle;curved=1;comic=1;sketch=1;orthogonalLoop=1;jettySize=auto;html=1;exitX=1;exitY=0.5;exitDx=0;exitDy=0;entryX=0;entryY=0.5;entryDx=0;entryDy=0;fontFamily=Comic Sans MS;" edge="1" parent="1" source="wkVQ0FYDgM6hOJOvWLBH-2" target="wkVQ0FYDgM6hOJOvWLBH-3">
          <mxGeometry relative="1" as="geometry" />
        </mxCell>
        <mxCell id="wkVQ0FYDgM6hOJOvWLBH-9" value="3、使用服务" style="edgeLabel;html=1;align=center;verticalAlign=middle;resizable=0;points=[];fontFamily=Comic Sans MS;" vertex="1" connectable="0" parent="wkVQ0FYDgM6hOJOvWLBH-6">
          <mxGeometry x="-0.1304" y="-1" relative="1" as="geometry">
            <mxPoint as="offset" />
          </mxGeometry>
        </mxCell>
        <mxCell id="wkVQ0FYDgM6hOJOvWLBH-2" value="Client端" style="rounded=1;whiteSpace=wrap;html=1;comic=1;sketch=0;fontFamily=Comic Sans MS;fillColor=#d5e8d4;strokeColor=#82b366;" vertex="1" parent="1">
          <mxGeometry x="140" y="210" width="120" height="60" as="geometry" />
        </mxCell>
        <mxCell id="wkVQ0FYDgM6hOJOvWLBH-5" style="edgeStyle=orthogonalEdgeStyle;curved=1;comic=1;sketch=1;orthogonalLoop=1;jettySize=auto;html=1;exitX=0.5;exitY=0;exitDx=0;exitDy=0;entryX=1;entryY=0.5;entryDx=0;entryDy=0;fontFamily=Comic Sans MS;" edge="1" parent="1" source="wkVQ0FYDgM6hOJOvWLBH-3" target="wkVQ0FYDgM6hOJOvWLBH-1">
          <mxGeometry relative="1" as="geometry" />
        </mxCell>
        <mxCell id="wkVQ0FYDgM6hOJOvWLBH-7" value="1、注册服务" style="edgeLabel;html=1;align=center;verticalAlign=middle;resizable=0;points=[];fontFamily=Comic Sans MS;" vertex="1" connectable="0" parent="wkVQ0FYDgM6hOJOvWLBH-5">
          <mxGeometry x="-0.25" y="29" relative="1" as="geometry">
            <mxPoint as="offset" />
          </mxGeometry>
        </mxCell>
        <mxCell id="wkVQ0FYDgM6hOJOvWLBH-3" value="Server端" style="rounded=1;whiteSpace=wrap;html=1;comic=1;sketch=0;fontFamily=Comic Sans MS;fillColor=#ffe6cc;strokeColor=#d79b00;" vertex="1" parent="1">
          <mxGeometry x="490" y="210" width="120" height="60" as="geometry" />
        </mxCell>
      </root>
    </mxGraphModel>
  </diagram>
</mxfile>
